<?xml version="1.0" encoding="UTF-8"?>
<svg xmlns="http://www.w3.org/2000/svg" xmlns:xlink="http://www.w3.org/1999/xlink" width="32px" height="32px" viewBox="0 0 32 32" version="1.1">
  <!-- Generator: Sketch 52.6 (67491) - http://www.bohemiancoding.com/sketch -->
  <title>icons/language-arts-icon-purple</title>
  <desc>Created with Sketch.</desc>
  <defs>
    <path d="M5.33838065e-19,27.8923933 L5.33838065e-19,7.65902405 C0.0250183842,7.36958077 0.150743831,7.09649339 0.357666971,6.8896001 C0.592393134,6.65752318 0.908823388,6.52736933 1.23917873,6.52998471 L3.42441698,6.52998471 L3.42441698,3.78029241 C3.42441698,3.33013856 3.79054671,2.96406164 4.24084243,2.96406164 L9.42659037,2.96406164 C11.619522,2.9666001 13.7460595,3.71652318 15.4554599,5.09006164 C15.9351445,3.60667702 16.8752801,2.31352318 18.1382315,1.39783087 C19.4025677,0.483446253 20.9231716,-0.00632297735 22.4833197,6.16380305e-05 L24.2603452,6.16380305e-05 C24.4771457,6.16380305e-05 24.6838679,0.0855231765 24.8369669,0.238523176 C24.9899889,0.3916001 25.0767707,0.599446253 25.0767707,0.816292407 L25.0767707,2.96390779 L27.7608501,2.96390779 C27.9776506,2.96390779 28.1856037,3.05067702 28.3387027,3.20367702 C28.4918017,3.35675395 28.5772756,3.5646001 28.5772756,3.78013856 L28.5772756,6.52983087 L30.7561283,6.52983087 L30.7562052,6.52990779 C31.0865606,6.52736933 31.4029139,6.65744625 31.63764,6.8896001 C31.8689452,7.12079571 31.9987814,7.43457394 32,7.76154003 L32,7.77083087 L32,27.7849078 L32,27.8036395 C31.997512,28.1323125 31.864128,28.4461257 31.6287157,28.6764463 C31.3902197,28.9110616 31.0648651,29.0386001 30.7293552,29.0283693 L22.6299562,29.0283693 C21.2573737,29.0195232 19.9484926,29.6049078 19.0376689,30.6315232 L18.9725826,30.7029847 L18.9432707,30.7361386 C18.7812473,30.9057539 18.6052219,31.0626001 18.4176564,31.2029078 L18.2480165,31.3202155 C18.0873011,31.4273693 17.9188921,31.5242924 17.7454056,31.6072155 L17.7454056,31.6084463 L17.7224023,31.6084463 L17.6663173,31.6339847 L17.460903,31.7219847 L17.41882,31.7385232 C17.2899553,31.7857539 17.1598596,31.8265232 17.0259172,31.8584463 L17.0271481,31.859677 C16.9774487,31.8762924 16.8932058,31.8992155 16.7885753,31.9183693 C16.5233062,31.9719078 16.2541136,31.998677 15.9849209,31.9999847 L15.7336539,31.9999847 C15.5537818,31.9885232 15.3739097,31.9655232 15.1978843,31.9311386 C15.0766361,31.9043693 14.9720825,31.8788309 14.8942251,31.8558309 C14.7755926,31.8252924 14.658268,31.7882924 14.5447132,31.7449078 C14.4605472,31.7117539 14.3750733,31.6760616 14.2869837,31.6339847 L14.2053565,31.5944463 C14.0433332,31.5153693 13.8876953,31.4260616 13.7372121,31.3266001 L13.738443,31.3279078 C13.6759725,31.2845232 13.6071164,31.2386001 13.5420301,31.1901386 C13.3723902,31.0612924 13.2129057,30.9210616 13.0649613,30.7679847 L13.0661922,30.7679847 L12.9514065,30.650677 C12.0315045,29.6163693 10.713776,29.0220616 9.32834543,29.0182155 L9.32965332,29.0182155 L1.23025436,29.0182155 C0.584037776,29.0182155 0.0544579249,28.5231153 5.33838065e-19,27.8923933 Z M26.9443477,4.59636933 L25.0769246,4.59636933 L25.0769246,21.0063693 C25.0769246,21.2231386 24.9902197,21.4310616 24.8371207,21.5840616 C24.6840217,21.7371386 24.4773765,21.8226001 24.2604991,21.8226001 L22.4834736,21.8226001 C21.3160744,21.8162155 20.1743713,22.1669078 19.2112324,22.8275232 C18.2480165,23.4881386 17.5094485,24.4268309 17.0948502,25.5185232 C18.7035438,24.4064463 20.6132808,23.8095232 22.5688705,23.8082924 L26.9443477,23.8082924 L26.9443477,4.59636933 Z M22.4833197,1.63244625 L22.4833197,1.63252318 C21.2345242,1.62483087 20.0175795,2.0266001 19.0186662,2.77521548 C18.0198298,3.52506164 17.2927249,4.58106164 16.9520604,5.78244625 C16.8908208,5.99675395 16.8448911,6.21483087 16.8142713,6.43544625 L16.8142713,22.8019847 C18.2277059,21.1402155 20.3019282,20.1849847 22.4833197,20.1901386 L23.4439198,20.1901386 L23.4439198,1.63241474 L22.4833197,1.63244625 Z M5.05103621,4.59636933 L5.05103621,23.8081386 L9.42651344,23.8081386 C11.5005818,23.8094463 13.5188729,24.4802924 15.1811127,25.7212155 L15.1811127,7.04506164 C13.6745877,5.48275395 11.5977497,4.59890779 9.42651344,4.59636933 L5.05103621,4.59636933 Z M17.768255,29.6034463 C17.6674713,29.7042155 17.5577631,29.7972924 17.4416695,29.8802155 L17.3434245,29.9490616 C17.2515651,30.0116001 17.1546281,30.0664463 17.0551522,30.1149078 L17.0321489,30.1149078 L16.9836803,30.1378309 L16.8497379,30.1965232 C16.7706496,30.2271386 16.6902534,30.2513693 16.6086262,30.2717539 L16.4682983,30.3049078 C16.3139684,30.3393693 16.1557917,30.3597539 15.997615,30.3636001 L15.8572871,30.3636001 C15.747579,30.3572155 15.6378708,30.3431386 15.5307015,30.3214463 C15.4617685,30.3214463 15.4031447,30.2921386 15.3419051,30.2756001 L15.3405972,30.2756001 C15.2717411,30.2577539 15.2028081,30.2360616 15.135183,30.2105232 L15.0012406,30.1518309 L14.9323845,30.118677 C14.8354474,30.0715232 14.7422801,30.0179847 14.6517286,29.9592924 L14.5343271,29.877677 C14.4297735,29.7972924 14.3315286,29.7106001 14.2409771,29.6162155 L14.1784296,29.5511386 C12.9474059,28.1737539 11.1882291,27.3869078 9.34219359,27.385677 L1.62815791,27.385677 L1.62815791,8.16229241 L3.40772227,8.16229241 L3.40772227,24.616677 C3.40772227,24.8335232 3.49450402,25.0413693 3.64752609,25.1944463 C3.80062509,25.3474463 4.00734721,25.4329078 4.22414771,25.4329078 L9.41735827,25.4329078 C11.6983026,25.4329078 13.8721546,26.4072924 15.3900659,28.1111386 C15.5444728,28.2846001 15.7664279,28.3827539 15.9986152,28.3827539 C16.2320335,28.3827539 16.4527576,28.2846001 16.6083954,28.1111386 C18.1264605,26.413677 20.295081,25.4443693 22.5710247,25.4430616 L27.7540799,25.4430616 C27.9709573,25.4430616 28.1789104,25.3576001 28.3319325,25.2046001 C28.4850315,25.0515232 28.5705054,24.843677 28.5705054,24.6269078 L28.5705054,8.16206164 L30.3666875,8.16206164 L30.3666875,27.3827539 L22.6565755,27.3827539 C20.8055393,27.3699847 19.0400539,28.1607539 17.8167236,29.5508309 L17.768255,29.6034463 Z M7.54509914,15.1873094 L7.54509914,15.1815605 C7.1008868,15.1815605 6.7396517,14.8537336 6.7396517,14.4479155 C6.7396517,14.0432748 7.1008868,13.7142704 7.54509914,13.7142704 L8.88296484,13.7142704 C10.312598,13.7165561 11.7222258,14.0168851 13.0034093,14.594686 C13.2047522,14.6760713 13.3608555,14.827344 13.4350425,15.015396 C13.5105934,15.2033787 13.4980142,15.4108245 13.4010938,15.5908419 C13.3028851,15.7696124 13.1304895,15.9048851 12.9203563,15.965699 C12.7114356,16.0264436 12.483646,16.0058029 12.2910934,15.9095258 C12.0443593,15.7994652 11.7926238,15.7020107 11.5346745,15.616054 C10.6851241,15.331725 9.78775761,15.1873094 8.88288906,15.1873094 L7.54509914,15.1873094 Z M7.54509914,9.47302368 L7.54509914,9.46727476 C7.1008868,9.46727476 6.7396517,9.13944792 6.7396517,8.73362974 C6.7396517,8.32898904 7.1008868,7.99998471 7.54509914,7.99998471 L8.88296484,7.99998471 C10.312598,8.00227043 11.7222258,8.30259943 13.0034093,8.8804003 C13.2047522,8.96178558 13.3608555,9.11305831 13.4350425,9.30111026 C13.5105934,9.48909294 13.4980142,9.69653883 13.4010938,9.87655614 C13.3028851,10.0553267 13.1304895,10.1905994 12.9203563,10.2514133 C12.7114356,10.3121579 12.483646,10.2915172 12.2910934,10.1952401 C12.0443593,10.0851795 11.7926238,9.98772497 11.5346745,9.90176826 C10.6851241,9.61743926 9.78775761,9.47302368 8.88288906,9.47302368 L7.54509914,9.47302368 Z M12.2910934,20.4818548 C12.0443593,20.3705475 11.7926996,20.2706687 11.5346745,20.1845735 C10.6851999,19.8998289 9.78783339,19.7552055 8.88296484,19.7552055 L7.54509914,19.7552055 C7.1008868,19.7552055 6.7396517,19.4268245 6.7396517,19.0204522 C6.7396517,18.6151882 7.1008868,18.285699 7.54509914,18.285699 L8.86659672,18.285699 C9.96530614,18.2845908 11.0564377,18.4601752 12.0884623,18.8057336 C12.400593,18.9113613 12.705146,19.0307726 13.0034093,19.1650756 C13.2047522,19.2454219 13.3608555,19.3981492 13.4350425,19.586409 C13.5105934,19.7746687 13.4980142,19.9824609 13.4010938,20.1615778 C13.3029609,20.3418029 13.1304895,20.4772834 12.9203563,20.536989 C12.7114356,20.5978029 12.483646,20.5771622 12.2910934,20.4818548 Z" id="path-1"></path>
  </defs>
  <g id="-----Product-Pages***" stroke="none" stroke-width="1" fill="none" fill-rule="evenodd">
    <g id="GED-Flash-Design-1024" transform="translate(-151.000000, -2690.000000)">
      <g id="Pick-your-subject-SECTION" transform="translate(0.000000, 2425.000000)">
        <g id="Group-15" transform="translate(64.000000, 225.000000)">
          <g id="icons/language-arts-icon-purple" transform="translate(87.000000, 40.000000)">
            <g>
              <mask id="mask-2" fill="white">
                <use xlink:href="#path-1"></use>
              </mask>
              <use id="Clip-2-Copy" fill="#8E6A96" xlink:href="#path-1"></use>
            </g>
          </g>
        </g>
      </g>
    </g>
  </g>
</svg>
