<?xml version="1.0" encoding="UTF-8"?>
<svg xmlns="http://www.w3.org/2000/svg" xmlns:xlink="http://www.w3.org/1999/xlink" width="28px" height="27px" viewBox="0 0 28 27" version="1.1">
  <!-- Generator: Sketch 52.6 (67491) - http://www.bohemiancoding.com/sketch -->
  <title>icons / math-icon-blue</title>
  <desc>Created with Sketch.</desc>
  <defs>
    <path d="M17.8170462,0.340904348 L17.8170462,0.340832107 C18.3252821,0.0101137124 18.9075385,-0.0345311037 19.6378359,0.355713712 L22.1592718,2.8908602 L24.6954974,0.340904348 C25.2465231,-0.0345311037 25.8139897,-0.168465552 26.4554051,0.296187291 C26.9176205,0.866745151 26.9768513,1.4224214 26.4850564,2.14179532 L23.9488308,4.70670502 L26.4867077,7.24185151 C26.9488513,7.70823813 26.9488513,8.57808963 26.4867077,9.04274247 C26.0080513,9.50746756 25.1577128,9.50746756 24.6954974,9.04274247 L22.1592718,6.50759599 L19.6378359,9.04274247 C19.1739692,9.50746756 18.3236308,9.50746756 17.8466256,9.04274247 C17.3844821,8.57642809 17.3844821,7.70657659 17.8466256,7.24185151 L20.3829231,4.70670502 L17.8466256,2.14179532 C17.4288513,1.7366689 17.3696923,0.866745151 17.8170462,0.340904348 Z M-3.87273785e-11,4.68000054 L-3.87273785e-11,4.67498866 C0.00171988875,4.09857853 0.596432401,3.54804825 1.26457115,3.52201535 L1.26292008,3.52194629 L11.5079727,3.52194629 C12.2093031,3.50861893 12.8333333,4.06125575 12.8333333,4.66740921 C12.8333333,5.26016624 12.2093782,5.81287212 11.5079727,5.79954476 L1.38832651,5.79954476 C0.686996101,5.82626854 0.0320458089,5.31368286 0.00112573096,4.72092583 C0.000413650243,4.7072748 4.06948712e-05,4.69363084 -4.18367563e-11,4.68000054 Z M5.95242093,26.9956788 L5.76108721,26.9956788 C5.15262565,26.9402733 4.60911791,26.3602051 4.62293456,25.7270605 L4.62293456,22.3814804 L1.30659509,22.3814804 C0.661134969,22.4108642 0.030204499,21.8478181 0.00107361964,21.1966925 C-0.0280572597,20.5455668 0.544611452,19.9090611 1.19014315,19.8796772 L4.62465235,19.8796772 L4.62465235,16.5340971 C4.61005112,15.8682795 5.19732106,15.2611576 5.84278119,15.2611576 L5.84113497,15.2611576 C6.51572597,15.2464657 7.11752556,15.8682075 7.10299591,16.5340971 L7.10299591,19.8796772 L10.419407,19.8796772 C11.0793967,19.8649133 11.6666667,20.4720352 11.6666667,21.1379248 C11.6666667,21.7890504 11.0794683,22.3961723 10.419407,22.3814804 L7.10299591,22.3814804 L7.10299591,25.7270605 C7.11688063,26.3602051 6.57337623,26.9402733 5.95242093,26.9956788 Z M17.5203988,17.6089091 L26.7397137,17.6089091 C27.3989877,17.5951779 28,18.1645613 28,18.789083 C28,19.3998735 27.3989877,19.9692569 26.7397137,19.9554545 L17.6382822,19.9554545 C16.9936094,19.9830593 16.3634663,19.4549407 16.334407,18.8442213 C16.3053476,18.2196996 16.8773006,17.6365138 17.5219734,17.6089802 L17.5203988,17.6089091 Z M17.5203988,22.304555 L26.7397137,22.304555 C27.3989877,22.2912276 28,22.8438645 28,23.4366905 C28,24.042844 27.3989877,24.5954808 26.7397137,24.5821535 L17.6382822,24.5821535 C16.9936094,24.6088772 16.3634663,24.0962916 16.334407,23.4901381 C16.3053476,22.8973811 16.8773006,22.3313478 17.5219734,22.304555 L17.5203988,22.304555 Z" id="path-1"></path>
  </defs>
  <g id="-----Product-Pages***" stroke="none" stroke-width="1" fill="none" fill-rule="evenodd">
    <g id="GED-Flash-Design-1024" transform="translate(-843.000000, -2695.000000)">
      <g id="Pick-your-subject-SECTION" transform="translate(0.000000, 2425.000000)">
        <g id="Group-15-Copy-5" transform="translate(754.000000, 225.000000)">
          <g id="icons-/-math-icon-blue" transform="translate(89.000000, 45.000000)">
            <g>
              <mask id="mask-2" fill="white">
                <use xlink:href="#path-1"></use>
              </mask>
              <use id="Combined-Shape" fill="#1FA0C4" xlink:href="#path-1"></use>
            </g>
          </g>
        </g>
      </g>
    </g>
  </g>
</svg>
