<?xml version="1.0" encoding="UTF-8"?>
<svg xmlns="http://www.w3.org/2000/svg" xmlns:xlink="http://www.w3.org/1999/xlink" width="20px" height="34px" viewBox="0 0 20 34" version="1.1">
  <!-- Generator: Sketch 52.6 (67491) - http://www.bohemiancoding.com/sketch -->
  <title>icons / science-icon-red</title>
  <desc>Created with Sketch.</desc>
  <g id="-----Product-Pages***" stroke="none" stroke-width="1" fill="none" fill-rule="evenodd">
    <g id="GED-Flash-Design-1024" transform="translate(-617.000000, -2688.000000)" fill="#E86650">
      <g id="Pick-your-subject-SECTION" transform="translate(0.000000, 2425.000000)">
        <g id="Group-15-Copy-4" transform="translate(524.000000, 225.000000)">
          <g id="Group-10" transform="translate(93.000000, 38.000000)">
            <g id="icons-/-science-icon-red">
              <g>
                <path d="M17.0385714,5.79691626 C15.4277311,5.79691626 14.1176471,4.49629064 14.1176471,2.89845813 C14.1176471,1.30062562 15.4277311,0 17.0385714,0 C18.6480672,0 19.9581513,1.29920197 19.9581513,2.89845813 C19.9581513,4.49629064 18.6494958,5.79691626 17.0385714,5.79691626 Z M17.0385714,1.07049754 C16.0236975,1.07049754 15.1971429,1.8896798 15.1971429,2.89720197 C15.1971429,3.90480788 16.0236975,4.72399015 17.0385714,4.72399015 C18.0534454,4.72399015 18.8785714,3.90480788 18.8785714,2.89720197 C18.8785714,1.8896798 18.0534454,1.07049754 17.0385714,1.07049754 Z" id="Clip-2"></path>
                <path d="M17.6335191,9.37931034 C18.9233437,9.37931034 19.9729205,10.4213188 19.9729205,11.7018415 C19.9729205,12.9823642 18.9233437,14.0242904 17.6335191,14.0242904 C16.3436945,14.0242904 15.2941176,12.9823642 15.2941176,11.7018415 C15.2941176,10.4213188 16.3436945,9.37931034 17.6335191,9.37931034 Z M17.6335191,12.9698584 C18.3392363,12.9698584 18.9122807,12.4008469 18.9122807,11.7002783 C18.9122807,10.9997096 18.3378328,10.4306981 17.6335191,10.4306981 C16.9278019,10.4306981 16.3546749,11.001026 16.3546749,11.7002783 C16.3546749,12.4008469 16.9292054,12.9698584 17.6335191,12.9698584 Z" id="Clip-5"></path>
                <path d="M9.99409029,4.6645437 C9.02473324,4.6645437 8.23668947,3.88077145 8.23529412,2.91843785 C8.23529412,1.95479551 9.02473324,1.17241379 9.99409029,1.17241379 C10.9633653,1.17241379 11.7528044,1.95618605 11.7528044,2.91843785 C11.7528044,3.88216199 10.9633653,4.6645437 9.99409029,4.6645437 Z M9.99409029,2.21924298 C9.60683995,2.21924298 9.29108071,2.53268645 9.28968536,2.91843785 C9.28968536,3.30418925 9.60552668,3.61771451 9.99409029,3.61771451 C10.3825718,3.61771451 10.6984131,3.30418925 10.6984131,2.91843785 C10.6984131,2.53276824 10.3825718,2.21924298 9.99409029,2.21924298 Z" id="Clip-8"></path>
                <path d="M0.00501960784,31.5713055 C0.0224928642,31.3050967 0.0856385931,31.0402024 0.195346405,30.7885415 L6.31776209,16.7551826 L6.31776209,9.27744061 L5.61811242,9.27744061 C5.32145359,9.27744061 5.0807634,9.02854151 5.0807634,8.72171648 L5.0807634,6.4177931 C5.0807634,6.11096807 5.32145359,5.86206897 5.61811242,5.86206897 L13.1942902,5.86206897 C13.490949,5.86206897 13.7316392,6.11096807 13.7316392,6.4177931 L13.7316392,8.72171648 C13.7316392,9.02854151 13.490949,9.27744061 13.1942902,9.27744061 L12.4945569,9.27744061 L12.4945569,16.7551826 L18.6168889,30.7885415 C18.9261804,31.4948557 18.8673673,32.3066871 18.461532,32.9564649 C18.0649063,33.5894097 17.4000498,33.9752244 16.6725703,33.9947893 L2.1409852,33.9947893 C1.4136212,33.9752608 0.748731542,33.5908164 0.35212549,32.9564649 C0.146373277,32.6262891 0.0298173329,32.2551968 0.00501960784,31.8775124 L0.00501960784,31.5713055 Z M7.34494118,17.1041277 L5.58029804,21.1490421 L13.2320209,21.1490421 L11.4673778,17.1041277 C11.4365908,17.0317854 11.4198588,16.9536245 11.4198588,16.8754636 L11.4198588,8.72197701 C11.4198588,8.41515198 11.660549,8.16625287 11.9572078,8.16625287 L12.6568575,8.16625287 L12.6568575,6.97377778 L6.15546144,6.97377778 L6.15546144,8.16625287 L6.85511111,8.16625287 C7.15176993,8.16625287 7.39246013,8.41515198 7.39246013,8.72197701 L7.39246013,16.8754636 C7.39246013,16.9536245 7.3757281,17.0317854 7.34494118,17.1041277 Z M15.8336,27.1112439 L15.3496261,25.9997957 L11.7041359,25.9997957 C11.4074771,25.9997957 11.1667869,26.2487816 11.1667869,26.5555198 C11.1667869,26.8623448 11.4074771,27.1112439 11.7041359,27.1112439 L15.8336,27.1112439 Z M14.2397072,23.4571341 L13.755566,22.3456858 L11.7040523,22.3456858 C11.4073098,22.3456858 11.1666196,22.5945849 11.1666196,22.90141 C11.1666196,23.208235 11.4073098,23.4571341 11.7040523,23.4571341 L14.2397072,23.4571341 Z M11.7040523,30.7655275 L17.4275765,30.7655275 L16.9434353,29.654166 L11.7040523,29.654166 C11.4073935,29.654166 11.1667033,29.9030651 11.1667033,30.2098033 C11.1667033,30.5166284 11.4073935,30.7655275 11.7040523,30.7655275 Z" id="Clip-11"></path>
              </g>
            </g>
          </g>
        </g>
      </g>
    </g>
  </g>
</svg>
