<?xml version="1.0" encoding="UTF-8"?>
<svg xmlns="http://www.w3.org/2000/svg" xmlns:xlink="http://www.w3.org/1999/xlink" width="24px" height="32px" viewBox="0 0 24 32" version="1.1">
  <!-- Generator: Sketch 52.6 (67491) - http://www.bohemiancoding.com/sketch -->
  <title>icons / social-studies-icon-green</title>
  <desc>Created with Sketch.</desc>
  <defs>
    <path d="M0,11.5606002 L0,11.5133189 C0.0128800894,5.76665373 4.72121313,1.09826113 10.4340253,1.10344828 C16.1146189,1.10880969 20.8224485,5.85757936 20.8095238,11.5710029 C20.7965179,17.3995767 16.1056773,22.1144175 10.3120132,22.0686454 C4.62077102,22.0227133 0.0130059524,17.4400674 0,11.5606002 Z M5.87235007,18.6822343 L5.87226879,18.6821543 C6.06321243,18.6482253 6.06069252,18.5123496 6.04947489,18.3699921 C5.98330711,17.5652203 5.93339676,16.7578879 5.83609598,15.9571171 C5.81739993,15.8016362 5.78000781,15.6475157 5.73131678,15.4959558 C5.70636161,15.2072398 5.67766722,14.9198842 5.64271373,14.6324485 C5.60410231,14.3085233 5.48054576,13.9884391 5.3545506,13.6853193 C5.25846912,13.4554188 5.02265495,13.403165 4.84805004,13.5142343 C4.68458147,13.6187418 4.52111291,13.7218889 4.35146652,13.8159937 C3.98965718,14.018447 3.94096615,14.2156989 4.14686663,14.5697921 C4.19921559,14.6598958 4.23668899,14.8662701 4.19921559,14.892437 C3.93844624,15.0766454 3.89609561,15.3170287 3.93600763,15.6175078 C3.94974516,15.7193746 3.87861886,15.8330045 3.84862388,15.9427934 C3.82366871,16.0328971 3.78001749,16.1256415 3.7837567,16.2144649 C3.79375502,16.4796546 3.9285292,16.7056341 4.12061086,16.8519926 C4.12191146,16.8807202 4.12565067,16.9108081 4.12938988,16.940816 C4.14312742,17.0426828 4.07200112,17.1563927 4.04200614,17.2661016 C4.01705097,17.3562853 3.97339974,17.4490297 3.97713895,17.5378531 C4.00217541,18.1635378 4.70953664,18.567244 5.26724814,18.2341163 C5.3195971,18.3412645 5.35950911,18.4352893 5.40941946,18.5241127 C5.51801916,18.7200842 5.68514565,18.7148829 5.87235007,18.6822343 Z M9.41679725,6.86976573 C9.55205915,6.71580521 9.69642522,6.64074546 9.89070164,6.63170308 C10.0232811,6.62906238 10.1571611,6.60841695 10.2884399,6.61873967 C10.7425915,6.65490919 10.8830558,6.3703543 10.8988255,6.0055383 C10.918497,5.60831377 10.9093116,5.60831377 11.3136341,5.61087444 C11.5538378,5.6122348 11.9055675,5.31079547 11.9292221,5.10378099 C11.9501942,4.91877231 11.9646633,4.71823954 12.0447312,4.5539563 C12.1903979,4.25507765 12.0618015,4.01445433 11.8649239,3.85657278 C11.7270608,3.74662385 11.4593008,3.70781364 11.2807941,3.75438589 C10.9526376,3.8410487 10.6520376,4.02605738 10.331766,4.14512872 C10.1952035,4.19554198 10.0258823,4.22402948 9.88810045,4.19170097 C9.44175242,4.08559305 9.07165179,4.33397842 9.02174144,4.78809792 C9.01385658,4.86571835 8.9324881,4.97054593 8.85900446,4.99895341 C8.4192407,5.17363938 8.01101637,4.97958831 7.60149144,4.85539563 C7.56605022,4.84499289 7.53581138,4.64838115 7.5725532,4.61733298 C7.6513205,4.55267597 7.77341388,4.5189871 7.88103813,4.50866439 C8.06214602,4.49185996 8.24593638,4.50346302 8.43761161,4.50346302 C8.44939825,4.37278863 8.4598843,4.2693214 8.47565402,4.1063185 C8.91541778,4.20722506 9.23308817,4.00925296 9.52182031,3.73630113 C9.56912946,3.69100921 9.65968341,3.69356989 9.71609673,3.65475967 C9.93402772,3.50992156 10.1584617,3.37012477 10.3566399,3.20200053 C10.5588012,3.02987523 10.7321055,2.82422111 10.947354,2.60424322 C10.700566,2.50077599 10.4143538,2.37266228 10.1177368,2.26143301 C9.90899126,2.18381258 9.7239003,2.24070755 9.55327846,2.38562569 C9.4272833,2.49301395 9.29080208,2.61456594 9.13846987,2.65729718 C8.84843713,2.74011898 8.70667225,2.93929139 8.58587946,3.17991471 C8.54783705,3.2562548 8.50971336,3.33779626 8.44939825,3.39733193 C8.33909152,3.50464017 8.21309635,3.5978647 8.09360417,3.69613056 C8.05686235,3.73494077 7.98337872,3.70261227 7.93485026,3.6495583 C7.71952046,3.40765465 7.7300878,3.41541669 7.46224647,3.62891287 C7.36380766,3.70781364 7.21415792,3.72461806 7.06979185,3.77503132 C7.04483668,3.38308818 6.94379669,3.33003422 6.65108147,3.48527507 C6.51850205,3.55641379 6.38852381,3.63403422 6.24936012,3.68708818 C6.18636254,3.71165465 6.06435045,3.70909397 6.03411161,3.67028376 C5.78862426,3.35332035 5.48810547,3.47751303 5.21376116,3.57841958 C4.95900707,3.6715641 4.7149016,3.80351882 4.48648456,3.95099763 C4.25156455,4.10367781 4.03103237,4.28348513 3.82887109,4.47497552 C3.75278627,4.54875494 3.71336198,4.69103238 3.7081596,4.80362201 C3.69108929,5.25254014 3.68190383,5.69497657 3.45868917,6.10764517 C3.21060063,6.56824638 2.97438002,7.03660963 2.75254725,7.51009424 C2.5464029,7.94996999 2.65142597,8.3497552 3.02420908,8.65895657 C3.22767094,8.82716083 3.37073642,9.0212119 3.46917522,9.24375046 C3.43243341,9.30968781 3.39829278,9.37050382 3.36423344,9.43260016 C3.29196912,9.39250961 3.24214007,9.34849803 3.18702734,9.33689497 C3.06753516,9.31232851 2.94284059,9.30456646 2.82074721,9.28904238 C2.83781752,9.41323506 2.85228664,9.53742774 2.87594122,9.66034009 C2.8811436,9.6926686 2.90609877,9.72627744 2.93235454,9.7470029 C3.14240067,9.90744512 3.27888188,10.0910934 3.1949122,10.3731677 C3.18174368,10.4119779 3.22506975,10.4702332 3.25002493,10.5154451 C3.27359821,10.5556157 3.29595219,10.5957062 3.31822489,10.6345165 C3.22116797,10.6189924 3.12264788,10.6112303 3.02420908,10.5995472 C3.04257999,10.7237399 3.05704911,10.8480126 3.07940309,10.970845 C3.08590606,11.0032535 3.11086124,11.0368623 3.137117,11.0575878 C3.34716313,11.21803 3.48364435,11.4016783 3.39967467,11.6837526 C3.38780673,11.7225628 3.42983222,11.7807381 3.45608798,11.82603 C3.60703832,12.0925001 3.75928925,12.3590503 3.91682385,12.6229597 C3.94047842,12.6630503 3.99819234,12.7083422 4.03891722,12.7083422 C4.1610106,12.7070619 4.36577307,12.7225859 4.39202883,12.665691 C4.46681306,12.5052487 4.50095368,12.3098373 4.48916704,12.1325907 C4.47998158,11.9955146 4.37625911,11.8661206 4.29359003,11.6901543 C4.45632701,11.651344 4.56525186,11.6177352 4.67555859,11.5996504 C4.82650893,11.5737236 4.86455134,11.4948228 4.77001432,11.3848739 C4.61256101,11.2024259 4.45234394,11.0213382 4.28830636,10.8376099 C4.33163244,10.860896 4.37625911,10.8816215 4.42348698,10.9009866 C4.56923493,10.9605222 4.73725558,11.0200579 4.83309319,11.1312872 C5.29643025,11.6655878 5.94745945,11.8467555 6.59596875,12.1106649 C6.6064548,11.7303248 6.33471168,11.5388344 6.11946317,11.3991177 C5.51167876,11.0045338 5.2465199,10.4094172 5.03127139,9.77805107 C4.92226525,9.45980732 5.13629446,9.10275336 5.46046782,8.98760305 C5.53533333,8.96039589 5.61011756,8.93198842 5.6796994,8.89573888 C6.1942474,8.62278705 6.74163542,8.86981206 6.87421484,9.43908186 C6.9621676,9.81294025 7.01988151,9.8595125 7.37429371,9.88151829 C7.45045982,9.67066281 7.52394345,9.47405107 7.5922247,9.27607897 C7.73398958,8.86725138 7.90989509,8.48299026 8.27739453,8.21395946 C8.32470368,8.1802706 8.341774,8.11041221 8.37583333,8.05999895 C8.50190978,7.86978889 8.60823344,7.66277441 8.75918378,7.49593051 C8.96126376,7.27339195 9.21853776,7.0961453 9.41679725,6.86976573 Z M17.3995257,13.3975636 C17.4174089,13.3357073 17.3816425,13.2416825 17.3509972,13.1773456 C17.1365616,12.8000463 16.8212485,12.5527813 16.4038387,12.4291487 C16.1740398,12.3608908 15.9531825,12.259184 15.729724,12.1690803 C15.5306516,12.0879389 15.40425,11.959105 15.3187359,11.7402474 C15.1234027,11.2380353 14.911487,11.1478515 14.3714961,11.2173898 C14.1646202,11.244437 13.9922913,11.1607349 13.8697915,10.9702048 C13.6373914,10.6069892 13.1152837,10.5245675 12.7540433,10.7641506 C12.68121,10.8143238 12.5242444,10.8349692 12.4667744,10.7911977 C12.2025097,10.5851435 11.9561282,10.3546028 11.7135672,10.1228618 C11.680402,10.0906133 11.6829219,9.99410792 11.7008051,9.94001369 C11.760795,9.76356725 11.8361483,9.59360253 11.938245,9.33993577 C11.7186882,9.36178152 11.578224,9.34121611 11.4710061,9.39266965 C11.200401,9.52406423 10.9182532,9.65665912 10.6897548,9.84726928 C10.4446739,10.0520432 10.2684433,10.3275557 10.3424959,10.6933319 C10.3655002,10.8092024 10.3833834,10.948279 10.339976,11.0512661 C10.2250359,11.324298 10.0999349,11.6024512 9.93142653,11.8432345 C9.79104353,12.0441674 9.8293298,12.2050898 9.90590234,12.3995409 C10.0782312,12.8425375 10.2326769,13.2906554 10.4050871,13.733652 C10.4497137,13.8508028 10.5058832,13.9860384 10.5991196,14.0568571 C10.8161564,14.2229808 11.0663584,14.3440526 11.2897357,14.5036947 C11.5067725,14.6582953 11.8272067,14.8037736 11.8884159,15.0162295 C12.0658659,15.6331119 12.1067533,16.283443 12.0837491,16.9311335 C12.0722876,17.2401748 12.018638,17.5453751 12.2114513,17.8364117 C12.3416734,18.0321432 12.4054838,18.2729266 12.5153028,18.4841021 C12.5625307,18.5730055 12.6595063,18.7068808 12.7207969,18.6991987 C12.8382569,18.685035 12.9965231,18.612936 13.0475714,18.5163506 C13.1242253,18.3720727 13.1421084,18.1879442 13.1522693,18.0192598 C13.1752736,17.6097921 13.3654857,17.3921348 13.7280266,17.4037378 C13.8723114,17.4088592 14.0165149,17.4410276 14.1594991,17.4680748 C14.3879974,17.5105659 14.5195201,17.434626 14.5629275,17.1899216 C14.5782094,17.1010982 14.6510428,16.986508 14.7276153,16.9504185 C15.1131605,16.7739721 15.3429594,16.4456457 15.6084435,16.1366044 C15.8241797,15.8854983 16.1394927,15.7232156 16.405058,15.5146007 C16.4956933,15.4425017 16.6310365,15.352318 16.6386775,15.2609339 C16.6693227,14.8989987 16.9042427,14.653094 17.059989,14.3582164 C17.2157353,14.0594177 17.2987295,13.722049 17.3995257,13.3975636 Z M18.0229985,6.7237273 C17.9187883,6.7419721 17.8157161,6.77590103 17.6618395,6.81503132 C17.7400378,6.99235799 17.8380701,7.12279231 17.8467679,7.26098868 C17.8579855,7.4396757 17.8257145,7.63660753 17.7549133,7.79833009 C17.7301207,7.85570519 17.5364946,7.84002106 17.4210668,7.84138142 C17.3826179,7.84138142 17.3279929,7.79568939 17.305639,7.75527876 C17.1567208,7.48920874 17.0126799,7.22057805 16.8700208,6.95194735 C16.8451469,6.90633535 16.8054788,6.84759989 16.8166151,6.8084696 C16.8960327,6.52415478 16.7669487,6.33898605 16.568364,6.17726349 C16.5435714,6.15645802 16.5199981,6.12252909 16.513739,6.08996052 C16.4926856,5.9660079 16.4790294,5.84085496 16.4616339,5.71562201 C16.5547078,5.7273851 16.6477816,5.73522717 16.7396362,5.75083127 C16.7185828,5.71170097 16.6974481,5.67129034 16.6750941,5.63087971 C16.6515208,5.58518768 16.6105521,5.52653225 16.622989,5.48740195 C16.7024066,5.20308713 16.5733225,5.0179184 16.3747379,4.85619584 C16.3499453,4.83539037 16.326372,4.80146144 16.3214135,4.76881285 C16.2990595,4.64494025 16.2854033,4.51978731 16.2692271,4.39455436 C16.3846549,4.41023848 16.5026027,4.41800053 16.6155106,4.44280705 C16.667697,4.45457015 16.7148436,4.49890182 16.7831248,4.53931245 C16.8526254,4.40495709 16.9183867,4.27716346 17.0114606,4.09855646 C17.3292122,4.47801632 17.6283491,4.82882864 17.9187883,5.18748302 C18.008123,5.29831219 17.9721127,5.37785312 17.830673,5.40393998 C17.7263815,5.42218479 17.6233906,5.45611371 17.4694327,5.49524401 C17.547631,5.67257068 17.6457446,5.803005 17.654361,5.94128139 L17.654361,5.95560516 C17.8107576,6.14205422 17.9621957,6.32466228 18.1124144,6.50983101 C18.2017491,6.6180995 18.1657388,6.69892077 18.0229985,6.7237273 Z M16.1675124,32 L3.64640725,32 C2.98656716,32 2.32672708,31.9987168 1.66819474,31.9987168 C1.20901208,31.9987168 0.909374556,31.3980952 1.22707534,31.0277293 C1.41735252,30.8053333 1.9035892,30.6966617 2.17372068,30.6011429 C3.35813077,30.1798496 4.58389837,29.9613033 5.6797086,29.2978847 C6.31772566,28.9117995 6.91446695,28.4446316 7.41100213,27.878015 C7.92927861,27.2839699 8.2740334,26.5119599 8.31391969,25.7137243 L8.31391969,25.5619048 C8.31645345,25.374797 8.31645345,25.2360501 8.30362118,25.1117393 C8.2675764,24.8186065 8.12356077,24.7937444 7.60651031,24.6799398 C7.28880952,24.6105664 6.97241649,24.5307669 6.65724947,24.4469574 L6.25078536,25.1693233 C6.04113717,25.5409724 5.5742715,25.6704962 5.20900142,25.4571629 C4.84364961,25.2438296 4.71638948,24.7688822 4.92603767,24.3972331 L5.4623774,23.4458947 C5.46875267,23.4093233 5.47651741,23.3713083 5.48804193,23.3333734 C5.60255153,22.9552281 5.99994314,22.791619 6.46174129,22.9107168 C7.13049041,23.0821855 7.79678749,23.2928722 8.4784506,23.3870276 C11.3915387,23.7939649 14.0913824,23.1593383 16.5146375,21.4712782 C19.2335252,19.577584 20.9390725,16.9514185 21.4085537,13.636812 C22.0374165,9.18776942 20.658479,5.45972932 17.1780739,2.60186466 C17.1484861,2.57700251 17.1163646,2.55342356 17.0854691,2.52992481 C17.0507321,2.51284211 17.015995,2.49327318 16.9825657,2.46969424 C16.8500746,2.37545865 16.7562438,2.24721805 16.7035252,2.10325815 C16.6275942,1.92793985 16.6262864,1.73946867 16.7047512,1.55893734 C16.726656,1.50007018 16.754936,1.44248622 16.7922068,1.38883208 L17.515064,0.33283208 C17.7556077,-0.0191679198 18.2314641,-0.10554386 18.5775267,0.13914787 C18.9235075,0.383839599 19.0096553,0.868010025 18.7678856,1.22001003 L18.4025338,1.75262155 C19.0443923,2.29437594 19.6257676,2.90285714 20.1453518,3.57148872 C21.7852665,5.68364912 22.7267626,8.07570927 22.9531663,10.7634687 C22.9840213,11.12921 22.9994662,11.4933685 23,11.8552154 L23,11.8940851 C22.990986,18.0037581 18.7321288,23.4463857 12.6292395,24.710015 C12.2588202,24.7872481 11.8857854,24.8513283 11.5295878,24.9194185 C11.5192893,24.9848622 11.5115245,25.0489424 11.5089908,25.1131028 C11.4897015,25.2242607 11.4909275,25.3786466 11.4948507,25.6037694 C11.5063753,26.4412231 11.8601208,27.2577444 12.4029176,27.878015 C12.8980633,28.4446316 13.4948863,28.9105163 14.1341294,29.2978847 C15.2285501,29.9625865 16.4555437,30.1798496 17.640199,30.6011429 C17.9102488,30.6980251 18.3964854,30.8053333 18.5868443,31.0277293 C18.9045451,31.398015 18.6048259,31.9987168 18.1456432,31.9987168 C17.4871109,32 16.8272708,32 16.1675124,32 Z" id="path-1"></path>
  </defs>
  <g id="-----Product-Pages***" stroke="none" stroke-width="1" fill="none" fill-rule="evenodd">
    <g id="GED-Flash-Design-1024" transform="translate(-385.000000, -2690.000000)">
      <g id="Pick-your-subject-SECTION" transform="translate(0.000000, 2425.000000)">
        <g id="Group-15-Copy-3" transform="translate(294.000000, 225.000000)">
          <g id="icons-/-social-studies-icon-green" transform="translate(91.000000, 40.000000)">
            <g>
              <mask id="mask-2" fill="white">
                <use xlink:href="#path-1"></use>
              </mask>
              <use id="Clip-2" fill="#629962" xlink:href="#path-1"></use>
            </g>
          </g>
        </g>
      </g>
    </g>
  </g>
</svg>
